<mxfile host="Electron" agent="Mozilla/5.0 (Windows NT 10.0; Win64; x64) AppleWebKit/537.36 (KHTML, like Gecko) draw.io/26.0.9 Chrome/128.0.6613.186 Electron/32.2.5 Safari/537.36" version="26.0.9">
  <diagram name="第 1 页" id="hTBO8dZ1P_cmCMYaIFZi">
    <mxGraphModel dx="1830" dy="1647" grid="1" gridSize="10" guides="1" tooltips="1" connect="1" arrows="1" fold="1" page="1" pageScale="1" pageWidth="827" pageHeight="1169" math="0" shadow="0">
      <root>
        <mxCell id="0" />
        <mxCell id="1" parent="0" />
        <mxCell id="NKHKZkguAB-D7dPg-42H-68" value="" style="rounded=1;whiteSpace=wrap;html=1;fillColor=#d5e8d4;strokeColor=#82b366;" vertex="1" parent="1">
          <mxGeometry x="50" y="500" width="1480" height="420" as="geometry" />
        </mxCell>
        <mxCell id="NKHKZkguAB-D7dPg-42H-69" value="" style="rounded=1;whiteSpace=wrap;html=1;fillColor=#A1A1A1;strokeColor=#666666;fontColor=#333333;" vertex="1" parent="1">
          <mxGeometry x="70" y="665" width="1280" height="245" as="geometry" />
        </mxCell>
        <mxCell id="NKHKZkguAB-D7dPg-42H-67" value="" style="rounded=1;whiteSpace=wrap;html=1;fillColor=#fff2cc;strokeColor=#d6b656;" vertex="1" parent="1">
          <mxGeometry x="50" y="340" width="1480" height="150" as="geometry" />
        </mxCell>
        <mxCell id="NKHKZkguAB-D7dPg-42H-65" value="" style="rounded=1;whiteSpace=wrap;html=1;fillColor=#dae8fc;strokeColor=#6c8ebf;" vertex="1" parent="1">
          <mxGeometry x="50" y="110" width="1480" height="220" as="geometry" />
        </mxCell>
        <mxCell id="NKHKZkguAB-D7dPg-42H-18" style="edgeStyle=none;rounded=0;orthogonalLoop=1;jettySize=auto;html=1;entryX=0;entryY=0.5;entryDx=0;entryDy=0;" edge="1" parent="1" source="NKHKZkguAB-D7dPg-42H-2" target="NKHKZkguAB-D7dPg-42H-14">
          <mxGeometry relative="1" as="geometry" />
        </mxCell>
        <mxCell id="NKHKZkguAB-D7dPg-42H-46" style="edgeStyle=none;rounded=0;orthogonalLoop=1;jettySize=auto;html=1;" edge="1" parent="1" source="NKHKZkguAB-D7dPg-42H-2" target="NKHKZkguAB-D7dPg-42H-9">
          <mxGeometry relative="1" as="geometry" />
        </mxCell>
        <mxCell id="NKHKZkguAB-D7dPg-42H-2" value="" style="ellipse;whiteSpace=wrap;html=1;aspect=fixed;" vertex="1" parent="1">
          <mxGeometry x="200" y="535" width="50" height="50" as="geometry" />
        </mxCell>
        <mxCell id="NKHKZkguAB-D7dPg-42H-3" value="&lt;font&gt;dev&lt;/font&gt;" style="text;html=1;align=center;verticalAlign=middle;resizable=0;points=[];autosize=1;strokeColor=none;fillColor=none;fontSize=27;fontStyle=1" vertex="1" parent="1">
          <mxGeometry x="120" y="535" width="70" height="50" as="geometry" />
        </mxCell>
        <mxCell id="NKHKZkguAB-D7dPg-42H-27" style="edgeStyle=none;rounded=0;orthogonalLoop=1;jettySize=auto;html=1;entryX=0.5;entryY=0;entryDx=0;entryDy=0;" edge="1" parent="1" source="NKHKZkguAB-D7dPg-42H-9" target="NKHKZkguAB-D7dPg-42H-26">
          <mxGeometry relative="1" as="geometry" />
        </mxCell>
        <mxCell id="NKHKZkguAB-D7dPg-42H-33" style="edgeStyle=none;rounded=0;orthogonalLoop=1;jettySize=auto;html=1;entryX=0.5;entryY=1;entryDx=0;entryDy=0;" edge="1" parent="1" source="NKHKZkguAB-D7dPg-42H-9" target="NKHKZkguAB-D7dPg-42H-32">
          <mxGeometry relative="1" as="geometry" />
        </mxCell>
        <mxCell id="NKHKZkguAB-D7dPg-42H-9" value="" style="ellipse;whiteSpace=wrap;html=1;aspect=fixed;" vertex="1" parent="1">
          <mxGeometry x="590" y="535" width="50" height="50" as="geometry" />
        </mxCell>
        <mxCell id="NKHKZkguAB-D7dPg-42H-20" value="" style="edgeStyle=none;rounded=0;orthogonalLoop=1;jettySize=auto;html=1;" edge="1" parent="1" source="NKHKZkguAB-D7dPg-42H-14" target="NKHKZkguAB-D7dPg-42H-19">
          <mxGeometry relative="1" as="geometry" />
        </mxCell>
        <mxCell id="NKHKZkguAB-D7dPg-42H-14" value="" style="ellipse;whiteSpace=wrap;html=1;aspect=fixed;" vertex="1" parent="1">
          <mxGeometry x="310" y="690" width="50" height="50" as="geometry" />
        </mxCell>
        <mxCell id="NKHKZkguAB-D7dPg-42H-15" value="&lt;font&gt;feature-A&lt;/font&gt;" style="text;html=1;align=center;verticalAlign=middle;resizable=0;points=[];autosize=1;strokeColor=none;fillColor=none;fontSize=27;fontStyle=1" vertex="1" parent="1">
          <mxGeometry x="95" y="695" width="130" height="50" as="geometry" />
        </mxCell>
        <mxCell id="NKHKZkguAB-D7dPg-42H-16" value="&lt;font&gt;feature-B&lt;/font&gt;" style="text;html=1;align=center;verticalAlign=middle;resizable=0;points=[];autosize=1;strokeColor=none;fillColor=none;fontSize=27;fontStyle=1" vertex="1" parent="1">
          <mxGeometry x="475" y="850" width="130" height="50" as="geometry" />
        </mxCell>
        <mxCell id="NKHKZkguAB-D7dPg-42H-22" value="" style="edgeStyle=none;rounded=0;orthogonalLoop=1;jettySize=auto;html=1;" edge="1" parent="1" source="NKHKZkguAB-D7dPg-42H-19" target="NKHKZkguAB-D7dPg-42H-21">
          <mxGeometry relative="1" as="geometry" />
        </mxCell>
        <mxCell id="NKHKZkguAB-D7dPg-42H-19" value="" style="ellipse;whiteSpace=wrap;html=1;aspect=fixed;" vertex="1" parent="1">
          <mxGeometry x="400" y="690" width="50" height="50" as="geometry" />
        </mxCell>
        <mxCell id="NKHKZkguAB-D7dPg-42H-23" style="edgeStyle=none;rounded=0;orthogonalLoop=1;jettySize=auto;html=1;entryX=0.5;entryY=1;entryDx=0;entryDy=0;" edge="1" parent="1" source="NKHKZkguAB-D7dPg-42H-21" target="NKHKZkguAB-D7dPg-42H-9">
          <mxGeometry relative="1" as="geometry" />
        </mxCell>
        <mxCell id="NKHKZkguAB-D7dPg-42H-21" value="" style="ellipse;whiteSpace=wrap;html=1;aspect=fixed;" vertex="1" parent="1">
          <mxGeometry x="500" y="690" width="50" height="50" as="geometry" />
        </mxCell>
        <mxCell id="NKHKZkguAB-D7dPg-42H-50" style="edgeStyle=none;rounded=0;orthogonalLoop=1;jettySize=auto;html=1;entryX=0.5;entryY=1;entryDx=0;entryDy=0;" edge="1" parent="1" source="NKHKZkguAB-D7dPg-42H-24" target="NKHKZkguAB-D7dPg-42H-49">
          <mxGeometry relative="1" as="geometry" />
        </mxCell>
        <mxCell id="NKHKZkguAB-D7dPg-42H-58" style="edgeStyle=none;rounded=0;orthogonalLoop=1;jettySize=auto;html=1;entryX=0;entryY=0.5;entryDx=0;entryDy=0;" edge="1" parent="1" source="NKHKZkguAB-D7dPg-42H-24" target="NKHKZkguAB-D7dPg-42H-57">
          <mxGeometry relative="1" as="geometry" />
        </mxCell>
        <mxCell id="NKHKZkguAB-D7dPg-42H-24" value="" style="ellipse;whiteSpace=wrap;html=1;aspect=fixed;" vertex="1" parent="1">
          <mxGeometry x="1090" y="535" width="50" height="50" as="geometry" />
        </mxCell>
        <mxCell id="NKHKZkguAB-D7dPg-42H-29" value="" style="edgeStyle=none;rounded=0;orthogonalLoop=1;jettySize=auto;html=1;" edge="1" parent="1" source="NKHKZkguAB-D7dPg-42H-26" target="NKHKZkguAB-D7dPg-42H-28">
          <mxGeometry relative="1" as="geometry" />
        </mxCell>
        <mxCell id="NKHKZkguAB-D7dPg-42H-26" value="" style="ellipse;whiteSpace=wrap;html=1;aspect=fixed;" vertex="1" parent="1">
          <mxGeometry x="680" y="850" width="50" height="50" as="geometry" />
        </mxCell>
        <mxCell id="NKHKZkguAB-D7dPg-42H-30" style="edgeStyle=none;rounded=0;orthogonalLoop=1;jettySize=auto;html=1;entryX=0.5;entryY=1;entryDx=0;entryDy=0;" edge="1" parent="1" source="NKHKZkguAB-D7dPg-42H-28" target="NKHKZkguAB-D7dPg-42H-24">
          <mxGeometry relative="1" as="geometry" />
        </mxCell>
        <mxCell id="NKHKZkguAB-D7dPg-42H-28" value="" style="ellipse;whiteSpace=wrap;html=1;aspect=fixed;" vertex="1" parent="1">
          <mxGeometry x="840" y="850" width="50" height="50" as="geometry" />
        </mxCell>
        <mxCell id="NKHKZkguAB-D7dPg-42H-31" value="&lt;span&gt;test&lt;/span&gt;" style="text;html=1;align=center;verticalAlign=middle;resizable=0;points=[];autosize=1;strokeColor=none;fillColor=none;fontSize=27;fontStyle=1" vertex="1" parent="1">
          <mxGeometry x="120" y="400" width="70" height="50" as="geometry" />
        </mxCell>
        <mxCell id="NKHKZkguAB-D7dPg-42H-37" value="" style="edgeStyle=none;rounded=0;orthogonalLoop=1;jettySize=auto;html=1;" edge="1" parent="1" source="NKHKZkguAB-D7dPg-42H-32" target="NKHKZkguAB-D7dPg-42H-36">
          <mxGeometry relative="1" as="geometry" />
        </mxCell>
        <mxCell id="NKHKZkguAB-D7dPg-42H-32" value="" style="ellipse;whiteSpace=wrap;html=1;aspect=fixed;" vertex="1" parent="1">
          <mxGeometry x="590" y="400" width="50" height="50" as="geometry" />
        </mxCell>
        <mxCell id="NKHKZkguAB-D7dPg-42H-34" value="&lt;span&gt;release&lt;/span&gt;" style="text;html=1;align=center;verticalAlign=middle;resizable=0;points=[];autosize=1;strokeColor=none;fillColor=none;fontSize=27;fontStyle=1" vertex="1" parent="1">
          <mxGeometry x="100" y="145" width="110" height="50" as="geometry" />
        </mxCell>
        <mxCell id="NKHKZkguAB-D7dPg-42H-39" value="" style="edgeStyle=none;rounded=0;orthogonalLoop=1;jettySize=auto;html=1;" edge="1" parent="1" source="NKHKZkguAB-D7dPg-42H-36" target="NKHKZkguAB-D7dPg-42H-38">
          <mxGeometry relative="1" as="geometry" />
        </mxCell>
        <mxCell id="NKHKZkguAB-D7dPg-42H-36" value="" style="ellipse;whiteSpace=wrap;html=1;aspect=fixed;" vertex="1" parent="1">
          <mxGeometry x="720" y="400" width="50" height="50" as="geometry" />
        </mxCell>
        <mxCell id="NKHKZkguAB-D7dPg-42H-41" style="edgeStyle=none;rounded=0;orthogonalLoop=1;jettySize=auto;html=1;entryX=0.5;entryY=1;entryDx=0;entryDy=0;" edge="1" parent="1" source="NKHKZkguAB-D7dPg-42H-38" target="NKHKZkguAB-D7dPg-42H-40">
          <mxGeometry relative="1" as="geometry" />
        </mxCell>
        <mxCell id="NKHKZkguAB-D7dPg-42H-45" style="edgeStyle=none;rounded=0;orthogonalLoop=1;jettySize=auto;html=1;entryX=0.5;entryY=0;entryDx=0;entryDy=0;" edge="1" parent="1" source="NKHKZkguAB-D7dPg-42H-38" target="NKHKZkguAB-D7dPg-42H-43">
          <mxGeometry relative="1" as="geometry" />
        </mxCell>
        <mxCell id="NKHKZkguAB-D7dPg-42H-38" value="" style="ellipse;whiteSpace=wrap;html=1;aspect=fixed;" vertex="1" parent="1">
          <mxGeometry x="850" y="400" width="50" height="50" as="geometry" />
        </mxCell>
        <mxCell id="NKHKZkguAB-D7dPg-42H-54" value="" style="edgeStyle=none;rounded=0;orthogonalLoop=1;jettySize=auto;html=1;" edge="1" parent="1" source="NKHKZkguAB-D7dPg-42H-40" target="NKHKZkguAB-D7dPg-42H-53">
          <mxGeometry relative="1" as="geometry" />
        </mxCell>
        <mxCell id="NKHKZkguAB-D7dPg-42H-40" value="" style="ellipse;whiteSpace=wrap;html=1;aspect=fixed;" vertex="1" parent="1">
          <mxGeometry x="850" y="145" width="50" height="50" as="geometry" />
        </mxCell>
        <mxCell id="NKHKZkguAB-D7dPg-42H-44" value="" style="edgeStyle=orthogonalEdgeStyle;rounded=0;orthogonalLoop=1;jettySize=auto;html=1;" edge="1" parent="1" source="NKHKZkguAB-D7dPg-42H-9" target="NKHKZkguAB-D7dPg-42H-43">
          <mxGeometry relative="1" as="geometry">
            <mxPoint x="640" y="560" as="sourcePoint" />
            <mxPoint x="970" y="560" as="targetPoint" />
          </mxGeometry>
        </mxCell>
        <mxCell id="NKHKZkguAB-D7dPg-42H-47" style="edgeStyle=none;rounded=0;orthogonalLoop=1;jettySize=auto;html=1;entryX=0;entryY=0.5;entryDx=0;entryDy=0;" edge="1" parent="1" source="NKHKZkguAB-D7dPg-42H-43" target="NKHKZkguAB-D7dPg-42H-24">
          <mxGeometry relative="1" as="geometry" />
        </mxCell>
        <mxCell id="NKHKZkguAB-D7dPg-42H-43" value="" style="ellipse;whiteSpace=wrap;html=1;aspect=fixed;" vertex="1" parent="1">
          <mxGeometry x="850" y="535" width="50" height="50" as="geometry" />
        </mxCell>
        <mxCell id="NKHKZkguAB-D7dPg-42H-52" style="edgeStyle=none;rounded=0;orthogonalLoop=1;jettySize=auto;html=1;entryX=0;entryY=0.5;entryDx=0;entryDy=0;" edge="1" parent="1" source="NKHKZkguAB-D7dPg-42H-49" target="NKHKZkguAB-D7dPg-42H-51">
          <mxGeometry relative="1" as="geometry" />
        </mxCell>
        <mxCell id="NKHKZkguAB-D7dPg-42H-49" value="" style="ellipse;whiteSpace=wrap;html=1;aspect=fixed;" vertex="1" parent="1">
          <mxGeometry x="1090" y="400" width="50" height="50" as="geometry" />
        </mxCell>
        <mxCell id="NKHKZkguAB-D7dPg-42H-62" value="" style="edgeStyle=none;rounded=0;orthogonalLoop=1;jettySize=auto;html=1;" edge="1" parent="1" source="NKHKZkguAB-D7dPg-42H-51" target="NKHKZkguAB-D7dPg-42H-61">
          <mxGeometry relative="1" as="geometry" />
        </mxCell>
        <mxCell id="NKHKZkguAB-D7dPg-42H-51" value="" style="ellipse;whiteSpace=wrap;html=1;aspect=fixed;" vertex="1" parent="1">
          <mxGeometry x="1200" y="400" width="50" height="50" as="geometry" />
        </mxCell>
        <mxCell id="NKHKZkguAB-D7dPg-42H-64" style="edgeStyle=none;rounded=0;orthogonalLoop=1;jettySize=auto;html=1;entryX=0.5;entryY=0;entryDx=0;entryDy=0;" edge="1" parent="1" source="NKHKZkguAB-D7dPg-42H-53" target="NKHKZkguAB-D7dPg-42H-57">
          <mxGeometry relative="1" as="geometry" />
        </mxCell>
        <mxCell id="NKHKZkguAB-D7dPg-42H-53" value="" style="ellipse;whiteSpace=wrap;html=1;aspect=fixed;" vertex="1" parent="1">
          <mxGeometry x="1030" y="245" width="50" height="50" as="geometry" />
        </mxCell>
        <mxCell id="NKHKZkguAB-D7dPg-42H-55" value="&lt;span&gt;hotfix&lt;/span&gt;" style="text;html=1;align=center;verticalAlign=middle;resizable=0;points=[];autosize=1;strokeColor=none;fillColor=none;fontSize=27;fontStyle=1" vertex="1" parent="1">
          <mxGeometry x="110" y="245" width="90" height="50" as="geometry" />
        </mxCell>
        <mxCell id="NKHKZkguAB-D7dPg-42H-57" value="" style="ellipse;whiteSpace=wrap;html=1;aspect=fixed;" vertex="1" parent="1">
          <mxGeometry x="1470" y="540" width="50" height="50" as="geometry" />
        </mxCell>
        <mxCell id="NKHKZkguAB-D7dPg-42H-61" value="" style="ellipse;whiteSpace=wrap;html=1;aspect=fixed;" vertex="1" parent="1">
          <mxGeometry x="1200" y="530" width="50" height="50" as="geometry" />
        </mxCell>
        <mxCell id="NKHKZkguAB-D7dPg-42H-70" value="&lt;font style=&quot;font-size: 23px;&quot;&gt;&lt;b&gt;不Push远程仓库!!&lt;/b&gt;&lt;/font&gt;" style="text;html=1;align=center;verticalAlign=middle;whiteSpace=wrap;rounded=0;fontSize=19;" vertex="1" parent="1">
          <mxGeometry x="160" y="820" width="280" height="90" as="geometry" />
        </mxCell>
        <mxCell id="NKHKZkguAB-D7dPg-42H-71" value="生&lt;div&gt;产&lt;/div&gt;&lt;div&gt;环&lt;/div&gt;&lt;div&gt;境&lt;/div&gt;" style="text;html=1;align=center;verticalAlign=middle;whiteSpace=wrap;rounded=0;fontSize=27;" vertex="1" parent="1">
          <mxGeometry x="1340" y="175" width="280" height="90" as="geometry" />
        </mxCell>
        <mxCell id="NKHKZkguAB-D7dPg-42H-72" value="测&lt;div&gt;试&lt;/div&gt;&lt;div&gt;环&lt;/div&gt;&lt;div&gt;境&lt;/div&gt;" style="text;html=1;align=center;verticalAlign=middle;whiteSpace=wrap;rounded=0;fontSize=27;" vertex="1" parent="1">
          <mxGeometry x="1340" y="370" width="280" height="90" as="geometry" />
        </mxCell>
        <mxCell id="NKHKZkguAB-D7dPg-42H-74" value="开&lt;div&gt;发&lt;/div&gt;&lt;div&gt;环&lt;/div&gt;&lt;div&gt;境&lt;/div&gt;" style="text;html=1;align=center;verticalAlign=middle;whiteSpace=wrap;rounded=0;fontSize=27;" vertex="1" parent="1">
          <mxGeometry x="1340" y="780" width="280" height="90" as="geometry" />
        </mxCell>
        <mxCell id="NKHKZkguAB-D7dPg-42H-77" value="&lt;font style=&quot;font-size: 20px;&quot;&gt;修复Bug&lt;/font&gt;" style="text;html=1;align=center;verticalAlign=middle;whiteSpace=wrap;rounded=0;" vertex="1" parent="1">
          <mxGeometry x="770" y="380" width="80" height="30" as="geometry" />
        </mxCell>
        <mxCell id="NKHKZkguAB-D7dPg-42H-78" value="&lt;font style=&quot;font-size: 20px;&quot;&gt;修复Bug&lt;/font&gt;" style="text;html=1;align=center;verticalAlign=middle;whiteSpace=wrap;rounded=0;" vertex="1" parent="1">
          <mxGeometry x="640" y="380" width="80" height="30" as="geometry" />
        </mxCell>
        <mxCell id="NKHKZkguAB-D7dPg-42H-79" value="&lt;font style=&quot;font-size: 20px;&quot;&gt;紧急修复&lt;/font&gt;" style="text;html=1;align=center;verticalAlign=middle;whiteSpace=wrap;rounded=0;" vertex="1" parent="1">
          <mxGeometry x="950" y="210" width="210" height="30" as="geometry" />
        </mxCell>
        <mxCell id="NKHKZkguAB-D7dPg-42H-81" value="" style="endArrow=none;dashed=1;html=1;dashPattern=1 3;strokeWidth=2;rounded=0;" edge="1" parent="1">
          <mxGeometry width="50" height="50" relative="1" as="geometry">
            <mxPoint x="30" y="203" as="sourcePoint" />
            <mxPoint x="1630" y="203" as="targetPoint" />
          </mxGeometry>
        </mxCell>
      </root>
    </mxGraphModel>
  </diagram>
</mxfile>
